<svg width="28" height="24" viewBox="0 0 28 24" fill="none" xmlns="http://www.w3.org/2000/svg">
<path d="M14.0003 0C6.66699 0 0.666992 4.77333 0.666992 10.6667C0.700654 12.0836 1.04676 13.4755 1.68059 14.7432C2.31442 16.0109 3.22034 17.1229 4.33366 18C4.33366 18.8 3.77366 20.8933 0.666992 24C3.82699 23.8533 6.85366 22.6667 9.29366 20.6667C10.8137 21.1067 12.4137 21.3333 14.0003 21.3333C21.3337 21.3333 27.3337 16.56 27.3337 10.6667C27.3337 4.77333 21.3337 0 14.0003 0ZM14.0003 18.6667C8.10699 18.6667 3.33366 15.08 3.33366 10.6667C3.33366 6.25333 8.10699 2.66667 14.0003 2.66667C19.8937 2.66667 24.667 6.25333 24.667 10.6667C24.667 15.08 19.8937 18.6667 14.0003 18.6667Z" fill="#101010"/>
</svg>
