<svg width="22" height="28" viewBox="0 0 22 28" fill="none" xmlns="http://www.w3.org/2000/svg">
<path d="M11 28L2.56401 18.051C2.44679 17.9016 2.33079 17.7513 2.21601 17.6C0.774992 15.7018 -0.00348119 13.3832 1.17029e-05 11C1.17029e-05 8.08262 1.15894 5.28473 3.22184 3.22183C5.28474 1.15893 8.08263 0 11 0C13.9174 0 16.7153 1.15893 18.7782 3.22183C20.8411 5.28473 22 8.08262 22 11C22.0035 13.3821 21.2254 15.6996 19.785 17.597L19.784 17.6C19.784 17.6 19.484 17.994 19.439 18.047L11 28ZM3.81301 16.395C3.81301 16.395 4.04601 16.703 4.09901 16.769L11 24.908L17.91 16.758C17.954 16.703 18.188 16.393 18.189 16.392C19.3662 14.8411 20.0023 12.947 20 11C20 8.61305 19.0518 6.32387 17.364 4.63604C15.6761 2.94821 13.387 2 11 2C8.61306 2 6.32388 2.94821 4.63605 4.63604C2.94822 6.32387 2.00001 8.61305 2.00001 11C1.99791 12.9482 2.63479 14.8434 3.81301 16.395Z" fill="#101010"/>
</svg>
