<svg width="27" height="28" viewBox="0 0 27 28" fill="none" xmlns="http://www.w3.org/2000/svg">
<path d="M24.1668 11.3334C24.1668 10.9798 24.0263 10.6406 23.7763 10.3906C23.5262 10.1405 23.1871 10 22.8334 10C22.4798 10 22.1407 10.1405 21.8906 10.3906C21.6406 10.6406 21.5001 10.9798 21.5001 11.3334H24.1668ZM5.50011 11.3334C5.50011 10.9798 5.35963 10.6406 5.10958 10.3906C4.85953 10.1405 4.5204 10 4.16677 10C3.81315 10 3.47401 10.1405 3.22397 10.3906C2.97392 10.6406 2.83344 10.9798 2.83344 11.3334H5.50011ZM24.5574 14.9427C24.8089 15.1856 25.1457 15.32 25.4953 15.3169C25.8449 15.3139 26.1793 15.1737 26.4265 14.9265C26.6737 14.6793 26.814 14.3448 26.817 13.9952C26.82 13.6456 26.6857 13.3088 26.4428 13.0574L24.5574 14.9427ZM13.5001 2.00004L14.4428 1.05737C14.1927 0.807413 13.8537 0.666992 13.5001 0.666992C13.1466 0.666992 12.8075 0.807413 12.5574 1.05737L13.5001 2.00004ZM0.557442 13.0574C0.430095 13.1804 0.328518 13.3275 0.25864 13.4902C0.188761 13.6528 0.151979 13.8278 0.150441 14.0048C0.148903 14.1819 0.182638 14.3575 0.249679 14.5213C0.316721 14.6852 0.415725 14.834 0.540915 14.9592C0.666105 15.0844 0.814974 15.1834 0.978836 15.2505C1.1427 15.3175 1.31827 15.3512 1.49531 15.3497C1.67235 15.3482 1.84731 15.3114 2.00998 15.2415C2.17265 15.1716 2.31978 15.0701 2.44277 14.9427L0.557442 13.0574ZM6.83344 27.3334H20.1668V24.6667H6.83344V27.3334ZM24.1668 23.3334V11.3334H21.5001V23.3334H24.1668ZM5.50011 23.3334V11.3334H2.83344V23.3334H5.50011ZM26.4428 13.0574L14.4428 1.05737L12.5574 2.94271L24.5574 14.9427L26.4428 13.0574ZM12.5574 1.05737L0.557442 13.0574L2.44277 14.9427L14.4428 2.94271L12.5574 1.05737ZM20.1668 27.3334C21.2276 27.3334 22.2451 26.9119 22.9952 26.1618C23.7453 25.4117 24.1668 24.3942 24.1668 23.3334H21.5001C21.5001 23.687 21.3596 24.0261 21.1096 24.2762C20.8595 24.5262 20.5204 24.6667 20.1668 24.6667V27.3334ZM6.83344 24.6667C6.47982 24.6667 6.14068 24.5262 5.89063 24.2762C5.64058 24.0261 5.50011 23.687 5.50011 23.3334H2.83344C2.83344 24.3942 3.25487 25.4117 4.00501 26.1618C4.75516 26.9119 5.77257 27.3334 6.83344 27.3334V24.6667Z" fill="#101010"/>
</svg>
