<svg width="24" height="24" viewBox="0 0 24 24" fill="none" xmlns="http://www.w3.org/2000/svg">
<path d="M1.33301 19.9998C1.33301 18.5853 1.89491 17.2288 2.8951 16.2286C3.8953 15.2284 5.25185 14.6665 6.66634 14.6665H17.333C18.7475 14.6665 20.104 15.2284 21.1042 16.2286C22.1044 17.2288 22.6663 18.5853 22.6663 19.9998C22.6663 20.7071 22.3854 21.3854 21.8853 21.8855C21.3852 22.3856 20.7069 22.6665 19.9997 22.6665H3.99967C3.29243 22.6665 2.61415 22.3856 2.11406 21.8855C1.61396 21.3854 1.33301 20.7071 1.33301 19.9998Z" stroke="#2980B9" stroke-width="2" stroke-linejoin="round"/>
<path d="M12 9.33325C14.2091 9.33325 16 7.54239 16 5.33325C16 3.12411 14.2091 1.33325 12 1.33325C9.79086 1.33325 8 3.12411 8 5.33325C8 7.54239 9.79086 9.33325 12 9.33325Z" stroke="#2980B9" stroke-width="2"/>
</svg>
